
<svg width="0" height="0" class="hidden">

<!-- icon: check -->
  <symbol xmlns="http://www.w3.org/2000/svg" viewBox="0 0 16 16" id="check">
    <path d="M13.854 3.646a.5.5 0 010 .708l-7 7a.5.5 0 01-.708 0l-3.5-3.5a.5.5 0 11.708-.708L6.5 10.293l6.646-6.647a.5.5 0 01.708 0z"></path>
  </symbol>

<!-- icon: add -->
  <symbol xmlns="http://www.w3.org/2000/svg" viewBox="0 0 16 16" id="add">
    <path d="M8 4a.5.5 0 01.5.5v3h3a.5.5 0 010 1h-3v3a.5.5 0 01-1 0v-3h-3a.5.5 0 010-1h3v-3A.5.5 0 018 4z"></path>
  </symbol>

<!-- icon: cross -->
  <symbol xmlns="http://www.w3.org/2000/svg" fill="currentColor" viewBox="0 0 16 16" id="cross">
    <path d="M4.646 4.646a.5.5 0 01.708 0L8 7.293l2.646-2.647a.5.5 0 01.708.708L8.707 8l2.647 2.646a.5.5 0 01-.708.708L8 8.707l-2.646 2.647a.5.5 0 01-.708-.708L7.293 8 4.646 5.354a.5.5 0 010-.708z"></path>
  </symbol>

</svg>